<?xml version="1.0" encoding="UTF-8"?>
<svg width="224px" height="224px" viewBox="0 0 224 224" version="1.1" xmlns="http://www.w3.org/2000/svg" xmlns:xlink="http://www.w3.org/1999/xlink">
    <!-- Generator: Sketch 48.2 (47327) - http://www.bohemiancoding.com/sketch -->
    <title>Purin-icon</title>
    <desc>Created with Sketch.</desc>
    <defs></defs>
    <g id="Page-1" stroke="none" stroke-width="1" fill="none" fill-rule="evenodd">
        <g id="Purin-icon" transform="translate(0.000000, -7.000000)">
            <ellipse id="Oval" fill="#9C2400" transform="translate(111.185530, 54.733583) rotate(5.000000) translate(-111.185530, -54.733583) " cx="111.18553" cy="54.7335826" rx="96.5" ry="46.5"></ellipse>
            <polygon id="Path-2" fill="#9C2400" points="41.2627737 72.5 29 207 209 207 197.613139 72.5"></polygon>
            <path d="M130.268693,24.2249626 C131.135693,20.2209626 135.084693,17.6789626 139.077693,18.5419626 C147.467693,20.3509626 155.108693,22.9199626 161.783693,26.1829626 C168.237693,29.3349626 173.448693,32.9559626 177.264693,36.9449626 C181.682693,41.5579626 184.014693,46.5579626 184.014693,51.4059626 C184.014693,55.4959626 180.697693,58.8159626 176.604693,58.8159626 C172.511693,58.8159626 169.194693,55.4949626 169.194693,51.4059626 C169.194693,50.8979626 168.644693,49.3709626 166.561693,47.1949626 C164.768693,45.3239626 161.354693,42.4689626 155.276693,39.4999626 C149.678693,36.7659626 143.174693,34.5859626 135.951693,33.0309626 C131.951693,32.1669626 129.409693,28.2249626 130.268693,24.2249626 Z" id="Path" fill="#FFFFFF" transform="translate(157.058262, 38.594847) rotate(-10.000000) translate(-157.058262, -38.594847) "></path>
            <path d="M15,45 C17.8948515,58.5 74.4647838,85.466072 112.748339,86.0025191 L112.748339,122.044204 C112.748339,122.269911 112.801149,122.487219 112.818048,122.712926 C109.905088,126.691663 108.617598,131.923859 110.037111,137.472045 C111.555906,143.401307 116.406966,148.269223 122.368077,149.786182 C134.055825,152.763411 144.547972,144.073178 144.547972,132.940064 C144.547972,130.20009 143.731541,127.723615 142.597198,125.423506 C142.172611,124.406251 141.809283,123.397395 141.227325,122.351795 C141.23507,122.283209 141.244576,119.111767 141.255842,112.837471 C141.255842,109.331143 144.23006,106.750738 147.75772,106.784332 C147.774619,106.784332 151.456129,106.784332 158.802252,106.784332 C162.408069,106.750738 165.383343,109.331143 165.383343,112.837471 L165.383343,153.319804 C162.50735,157.30169 161.253658,162.518139 162.684789,168.04113 C164.216258,173.950446 169.067318,178.801565 175.016811,180.310126 C186.69611,183.275807 197.180864,174.581375 197.180864,163.456659 C197.180864,159.671086 195.954632,156.177356 193.891902,153.319804 C193.891902,153.319804 193.75143,115.944875 193.602507,91.089843 C193.537024,80.5677117 199.5,64.5 207.5,61.5 C218,82 209.179735,125.979638 211.847308,149.786182 C215.822281,185.260508 219.5,188.5 222,195 C224.5,201.5 225,209.5 216.5,220 C208,230.5 197.768132,230.149444 191.464267,230.149444 C179.768162,230.149444 60.8133132,228.896266 42.7681615,228.111694 C35.7585746,227.806929 23.3288183,218.727599 18.3370645,208.808095 C14.9077985,201.993532 12.1571979,194.782448 10.363502,189.747357 C-4.21483926,148.824439 1.73323952,120.291263 4,86.0025191 C5.12998879,68.9094486 14.6082802,44.9351082 15,45 Z" id="Path" fill="#FAD03C"></path>
        </g>
    </g>
</svg>